<svg width="275" height="100" viewBox="0 0 275 100" fill="none" xmlns="http://www.w3.org/2000/svg">
<path d="M0 40C0 17.9086 17.9086 0 40 0V0C62.0914 0 80 17.9086 80 40V60C80 82.0914 62.0914 100 40 100H0V40Z" fill="black"/>
<path d="M114.2 47.7337C114.2 48.4517 114.155 49.1997 114.067 49.9776H96.9063C97.0246 51.5334 97.5124 52.7301 98.3696 53.5678C99.2565 54.3756 100.335 54.7795 101.607 54.7795C103.499 54.7795 104.814 53.9717 105.553 52.3561H113.623C113.21 54.0017 112.456 55.4826 111.362 56.799C110.298 58.1154 108.953 59.1476 107.327 59.8956C105.701 60.6436 103.883 61.0176 101.873 61.0176C99.4486 61.0176 97.2907 60.494 95.3987 59.4468C93.5067 58.3997 92.0287 56.9037 90.9645 54.959C89.9003 53.0144 89.3682 50.7405 89.3682 48.1376C89.3682 45.5346 89.8855 43.2608 90.9201 41.3161C91.9844 39.3714 93.4624 37.8755 95.3544 36.8283C97.2463 35.7811 99.4191 35.2576 101.873 35.2576C104.267 35.2576 106.396 35.7662 108.258 36.7834C110.12 37.8007 111.569 39.2517 112.603 41.1366C113.668 43.0215 114.2 45.2205 114.2 47.7337ZM106.44 45.7142C106.44 44.3978 105.996 43.3505 105.11 42.5727C104.223 41.7948 103.114 41.4059 101.784 41.4059C100.513 41.4059 99.4338 41.7798 98.547 42.5278C97.6897 43.2758 97.1576 44.3379 96.9507 45.7142H106.44Z" fill="black"/>
<path d="M125.783 39.162C126.522 37.9951 127.542 37.0527 128.842 36.3346C130.143 35.6166 131.665 35.2576 133.41 35.2576C135.449 35.2576 137.297 35.7811 138.952 36.8283C140.608 37.8755 141.909 39.3714 142.854 41.3161C143.83 43.2608 144.318 45.5197 144.318 48.0927C144.318 50.6657 143.83 52.9395 142.854 54.9142C141.909 56.8588 140.608 58.3698 138.952 59.4468C137.297 60.494 135.449 61.0176 133.41 61.0176C131.695 61.0176 130.173 60.6585 128.842 59.9405C127.542 59.2224 126.522 58.2949 125.783 57.1581V72.5961H118.2V35.6166H125.783V39.162ZM136.602 48.0927C136.602 46.1779 136.07 44.682 135.006 43.6049C133.971 42.4979 132.685 41.9444 131.148 41.9444C129.64 41.9444 128.355 42.4979 127.29 43.6049C126.256 44.7119 125.738 46.2227 125.738 48.1376C125.738 50.0524 126.256 51.5632 127.29 52.6702C128.355 53.7773 129.64 54.3307 131.148 54.3307C132.656 54.3307 133.942 53.7773 135.006 52.6702C136.07 51.5334 136.602 50.0075 136.602 48.0927Z" fill="black"/>
<path d="M159.559 60.9726C157.283 60.9726 155.243 60.5987 153.44 59.8507C151.636 59.1027 150.188 57.9958 149.094 56.5297C148.03 55.0637 147.468 53.2985 147.409 51.2341H155.479C155.598 52.4009 155.997 53.2985 156.677 53.9268C157.357 54.5251 158.243 54.8243 159.337 54.8243C160.461 54.8243 161.347 54.57 161.998 54.0614C162.648 53.5229 162.973 52.7899 162.973 51.8624C162.973 51.0845 162.707 50.4412 162.175 49.9326C161.673 49.4241 161.037 49.0051 160.268 48.6761C159.529 48.347 158.465 47.9729 157.076 47.5541C155.066 46.9258 153.425 46.2975 152.154 45.6692C150.883 45.0409 149.789 44.1134 148.872 42.8868C147.956 41.6602 147.498 40.0595 147.498 38.0848C147.498 35.1528 148.547 32.864 150.646 31.2185C152.745 29.543 155.479 28.7053 158.849 28.7053C162.279 28.7053 165.043 29.543 167.141 31.2185C169.24 32.864 170.363 35.1678 170.511 38.1297H162.308C162.249 37.1125 161.879 36.3196 161.2 35.7512C160.52 35.1528 159.648 34.8536 158.583 34.8536C157.667 34.8536 156.928 35.1079 156.366 35.6165C155.805 36.0952 155.524 36.7983 155.524 37.7258C155.524 38.7431 155.997 39.5359 156.943 40.1043C157.889 40.6728 159.367 41.2861 161.377 41.9443C163.387 42.6324 165.013 43.2907 166.255 43.919C167.526 44.5473 168.62 45.4598 169.535 46.6565C170.452 47.8533 170.91 49.3941 170.91 51.279C170.91 53.0741 170.452 54.7046 169.535 56.1707C168.649 57.6367 167.348 58.8036 165.634 59.6712C163.919 60.5388 161.894 60.9726 159.559 60.9726Z" fill="black"/>
<path d="M189.367 54.1512V60.6585H185.509C182.76 60.6585 180.617 59.9854 179.08 58.639C177.542 57.2627 176.774 55.0339 176.774 51.9522V41.9893H173.759V35.6166H176.774V29.5132H184.357V35.6166H189.323V41.9893H184.357V52.042C184.357 52.79 184.534 53.3285 184.889 53.6576C185.243 53.9866 185.834 54.1512 186.662 54.1512H189.367Z" fill="black"/>
<path d="M204.854 61.0176C202.429 61.0176 200.242 60.494 198.291 59.4468C196.37 58.3997 194.847 56.9037 193.724 54.959C192.63 53.0144 192.083 50.7405 192.083 48.1376C192.083 45.5646 192.645 43.3057 193.768 41.361C194.891 39.3863 196.429 37.8755 198.38 36.8283C200.331 35.7811 202.518 35.2576 204.942 35.2576C207.367 35.2576 209.554 35.7811 211.505 36.8283C213.456 37.8755 214.993 39.3863 216.116 41.361C217.239 43.3057 217.801 45.5646 217.801 48.1376C217.801 50.7105 217.225 52.9844 216.072 54.959C214.949 56.9037 213.397 58.3997 211.416 59.4468C209.465 60.494 207.278 61.0176 204.854 61.0176ZM204.854 54.3756C206.302 54.3756 207.528 53.8371 208.534 52.76C209.568 51.6829 210.086 50.1422 210.086 48.1376C210.086 46.133 209.584 44.5922 208.578 43.5151C207.603 42.4381 206.391 41.8995 204.942 41.8995C203.465 41.8995 202.237 42.4381 201.262 43.5151C200.286 44.5622 199.799 46.1031 199.799 48.1376C199.799 50.1422 200.272 51.6829 201.217 52.76C202.193 53.8371 203.405 54.3756 204.854 54.3756Z" fill="black"/>
<path d="M220.316 48.1376C220.316 45.5346 220.833 43.2608 221.868 41.3161C222.933 39.3714 224.396 37.8755 226.258 36.8283C228.149 35.7811 230.308 35.2576 232.732 35.2576C235.836 35.2576 238.422 36.0803 240.492 37.7259C242.591 39.3714 243.965 41.6901 244.616 44.682H236.546C235.865 42.7671 234.55 41.8098 232.599 41.8098C231.209 41.8098 230.101 42.3632 229.274 43.4703C228.445 44.5473 228.032 46.1031 228.032 48.1376C228.032 50.172 228.445 51.7427 229.274 52.8498C230.101 53.9268 231.209 54.4654 232.599 54.4654C234.55 54.4654 235.865 53.508 236.546 51.5932H244.616C243.965 54.5252 242.591 56.829 240.492 58.5044C238.392 60.1798 235.806 61.0176 232.732 61.0176C230.308 61.0176 228.149 60.494 226.258 59.4468C224.396 58.3997 222.933 56.9037 221.868 54.959C220.833 53.0144 220.316 50.7405 220.316 48.1376Z" fill="black"/>
<path d="M263.792 60.6585L256.253 50.157V60.6585H248.671V27.4487H256.253V45.8038L263.747 35.6165H273.103L262.816 48.1824L273.192 60.6585H263.792Z" fill="black"/>
<path d="M62.1923 75H49.8868L29.3055 44.1595V75H17V25H29.3055L49.8868 55.9829V25H62.1923V75Z" fill="white"/>
</svg>
